HIERARCHY
ROOT newVegas:Hips
{
	OFFSET 0.000000 96.479958 0.000000
	CHANNELS 6 Xposition Yposition Zposition Xrotation Yrotation Zrotation
	JOINT newVegas:Pelvis
	{
		OFFSET 0.000000 0.000000 0.000000
		CHANNELS 3 Xrotation Yrotation Zrotation
		JOINT newVegas:LeftUpLeg
		{
			OFFSET 18.735201 -5.666702 -4.541200
			CHANNELS 3 Xrotation Yrotation Zrotation
			JOINT newVegas:LeftLeg
			{
				OFFSET -0.021200 -31.938179 0.493100
				CHANNELS 3 Xrotation Yrotation Zrotation
				JOINT newVegas:LeftFoot
				{
					OFFSET 0.021200 -31.938179 -4.336299
					CHANNELS 3 Xrotation Yrotation Zrotation
					JOINT newVegas:LeftToeBase
					{
						OFFSET 0.943001 -26.722000 15.023500
						CHANNELS 3 Xrotation Yrotation Zrotation
						End Site
						{
							OFFSET 0.000000 30.670183 0.000000
						}
					}
				}
				JOINT newVegas:Left_PantLeg
				{
					OFFSET 0.663870 -9.044666 -1.108900
					CHANNELS 3 Xrotation Yrotation Zrotation
					End Site
					{
						OFFSET 1.415995 20.635357 0.000000
					}
				}
			}
		}
		JOINT newVegas:RightUpLeg
		{
			OFFSET -18.735201 -5.666702 -4.541200
			CHANNELS 3 Xrotation Yrotation Zrotation
			JOINT newVegas:RightLeg
			{
				OFFSET 0.018946 -31.938133 0.493100
				CHANNELS 3 Xrotation Yrotation Zrotation
				JOINT newVegas:RightFoot
				{
					OFFSET -0.018946 -31.938126 -4.336299
					CHANNELS 3 Xrotation Yrotation Zrotation
					JOINT newVegas:RightToeBase
					{
						OFFSET -0.943001 -26.722004 15.023500
						CHANNELS 3 Xrotation Yrotation Zrotation
						End Site
						{
							OFFSET 0.000000 30.670187 0.000000
						}
					}
				}
				JOINT newVegas:Right_PantLeg
				{
					OFFSET -0.661674 -9.044716 -1.108900
					CHANNELS 3 Xrotation Yrotation Zrotation
					End Site
					{
						OFFSET -1.415958 20.635269 0.000000
					}
				}
			}
		}
	}
	JOINT newVegas:Spine
	{
		OFFSET 0.000000 10.199997 -0.299500
		CHANNELS 3 Xrotation Yrotation Zrotation
		JOINT newVegas:Spine1
		{
			OFFSET 0.000000 11.900002 -1.516600
			CHANNELS 3 Xrotation Yrotation Zrotation
			JOINT newVegas:Spine2
			{
				OFFSET 0.000000 13.600006 -2.842500
				CHANNELS 3 Xrotation Yrotation Zrotation
				JOINT newVegas:Neck
				{
					OFFSET 0.000000 9.624100 -2.890100
					CHANNELS 3 Xrotation Yrotation Zrotation
					JOINT newVegas:Head
					{
						OFFSET 0.000000 14.068802 -1.351900
						CHANNELS 3 Xrotation Yrotation Zrotation
						JOINT newVegas:Hair_Back
						{
							OFFSET 0.000000 3.231903 -17.524799
							CHANNELS 3 Xrotation Yrotation Zrotation
							End Site
							{
								OFFSET 0.000000 19.849884 0.000000
							}
						}
						JOINT newVegas:Hair_Front
						{
							OFFSET 0.000000 31.260406 4.573800
							CHANNELS 3 Xrotation Yrotation Zrotation
							JOINT newVegas:Hair_Front1
							{
								OFFSET 0.000000 2.284103 11.993300
								CHANNELS 3 Xrotation Yrotation Zrotation
								JOINT newVegas:Hair_Front2
								{
									OFFSET 0.000000 2.284103 11.993300
									CHANNELS 3 Xrotation Yrotation Zrotation
									End Site
									{
										OFFSET 0.000000 12.208862 0.000000
									}
								}
							}
						}
						JOINT newVegas:Jowel
						{
							OFFSET 0.000000 -7.458206 6.864100
							CHANNELS 3 Xrotation Yrotation Zrotation
							End Site
							{
								OFFSET 0.000000 19.849884 0.000000
							}
						}
					}
				}
				JOINT newVegas:LeftShoulder
				{
					OFFSET 15.263000 10.923401 -0.547700
					CHANNELS 3 Xrotation Yrotation Zrotation
					JOINT newVegas:LeftArm
					{
						OFFSET 25.438599 -2.830597 -13.032500
						CHANNELS 3 Xrotation Yrotation Zrotation
						JOINT newVegas:LeftForeArm
						{
							OFFSET 29.960503 0.000000 0.000000
							CHANNELS 3 Xrotation Yrotation Zrotation
							JOINT newVegas:LeftHand
							{
								OFFSET 27.849251 0.000000 0.000000
								CHANNELS 3 Xrotation Yrotation Zrotation
								JOINT newVegas:LeftHandThumb1
								{
									OFFSET 4.487587 -3.305161 6.305391
									CHANNELS 3 Xrotation Yrotation Zrotation
									JOINT newVegas:LeftHandThumb2
									{
										OFFSET 5.480453 -3.164139 3.164143
										CHANNELS 3 Xrotation Yrotation Zrotation
										JOINT newVegas:LeftHandThumb3
										{
											OFFSET 5.159721 -2.978973 2.978967
											CHANNELS 3 Xrotation Yrotation Zrotation
											End Site
											{
												OFFSET 2.494507 5.926697 1.738678
											}
										}
									}
								}
								JOINT newVegas:LeftHandIndex1
								{
									OFFSET 18.578728 -0.527832 5.208049
									CHANNELS 3 Xrotation Yrotation Zrotation
									JOINT newVegas:LeftHandIndex2
									{
										OFFSET 3.192009 0.000000 0.000000
										CHANNELS 3 Xrotation Yrotation Zrotation
										JOINT newVegas:LeftHandIndex3
										{
											OFFSET 3.835129 0.000000 0.000000
											CHANNELS 3 Xrotation Yrotation Zrotation
											End Site
											{
												OFFSET -0.034599 3.816971 0.371180
											}
										}
									}
								}
								JOINT newVegas:LeftHandMiddle1
								{
									OFFSET 18.476105 0.000000 0.000000
									CHANNELS 3 Xrotation Yrotation Zrotation
									JOINT newVegas:LeftHandMiddle2
									{
										OFFSET 3.324875 0.000000 0.000000
										CHANNELS 3 Xrotation Yrotation Zrotation
										JOINT newVegas:LeftHandMiddle3
										{
											OFFSET 4.596550 0.000000 0.000000
											CHANNELS 3 Xrotation Yrotation Zrotation
											End Site
											{
												OFFSET 0.057701 4.578827 0.399218
											}
										}
									}
								}
								JOINT newVegas:LeftHandRing1
								{
									OFFSET 17.732719 0.121887 -4.201567
									CHANNELS 3 Xrotation Yrotation Zrotation
									JOINT newVegas:LeftHandRing2
									{
										OFFSET 2.733170 0.000000 0.000000
										CHANNELS 3 Xrotation Yrotation Zrotation
										JOINT newVegas:LeftHandRing3
										{
											OFFSET 3.178268 0.000000 0.000000
											CHANNELS 3 Xrotation Yrotation Zrotation
											End Site
											{
												OFFSET 0.119102 3.170624 0.185394
											}
										}
									}
								}
								JOINT newVegas:LeftHandPinky1
								{
									OFFSET 15.989624 -0.606689 -7.535461
									CHANNELS 3 Xrotation Yrotation Zrotation
									JOINT newVegas:LeftHandPinky2
									{
										OFFSET 2.538986 0.000000 0.000000
										CHANNELS 3 Xrotation Yrotation Zrotation
										JOINT newVegas:LeftHandPinky3
										{
											OFFSET 2.593102 0.000000 0.000000
											CHANNELS 3 Xrotation Yrotation Zrotation
											End Site
											{
												OFFSET -0.150902 2.584198 0.152708
											}
										}
									}
								}
							}
							JOINT newVegas:Left_Sleeve
							{
								OFFSET 0.267448 -0.649796 0.577675
								CHANNELS 3 Xrotation Yrotation Zrotation
								End Site
								{
									OFFSET 0.000000 15.991241 0.000000
								}
							}
							JOINT newVegas:Left_CapeC
							{
								OFFSET 15.715958 -8.608795 -6.935905
								CHANNELS 3 Xrotation Yrotation Zrotation
								JOINT newVegas:Left_CapeC1
								{
									OFFSET 0.000000 -8.688499 0.000000
									CHANNELS 3 Xrotation Yrotation Zrotation
									End Site
									{
										OFFSET 0.000000 8.688499 0.000000
									}
								}
							}
						}
						JOINT newVegas:Left_CapeB
						{
							OFFSET 26.118385 -8.608795 -7.079235
							CHANNELS 3 Xrotation Yrotation Zrotation
							JOINT newVegas:Left_CapeB1
							{
								OFFSET 0.000000 -8.688499 0.000000
								CHANNELS 3 Xrotation Yrotation Zrotation
								End Site
								{
									OFFSET 0.000000 8.688499 0.000000
								}
							}
						}
						JOINT newVegas:Left_CapeA
						{
							OFFSET 5.115639 -8.608795 -10.395809
							CHANNELS 3 Xrotation Yrotation Zrotation
							JOINT newVegas:Left_CapeA1
							{
								OFFSET 0.000000 -8.688499 0.000000
								CHANNELS 3 Xrotation Yrotation Zrotation
								End Site
								{
									OFFSET 0.000000 8.688499 0.000000
								}
							}
						}
					}
				}
				JOINT newVegas:RightShoulder
				{
					OFFSET -15.263000 10.923401 -0.547700
					CHANNELS 3 Xrotation Yrotation Zrotation
					JOINT newVegas:RightArm
					{
						OFFSET -25.438599 -2.830597 -13.032500
						CHANNELS 3 Xrotation Yrotation Zrotation
						JOINT newVegas:RightForeArm
						{
							OFFSET -29.960503 0.000000 0.000000
							CHANNELS 3 Xrotation Yrotation Zrotation
							JOINT newVegas:RightHand
							{
								OFFSET -27.849251 0.000000 0.000000
								CHANNELS 3 Xrotation Yrotation Zrotation
								JOINT newVegas:RightHandThumb1
								{
									OFFSET -4.487587 -3.305161 6.305391
									CHANNELS 3 Xrotation Yrotation Zrotation
									JOINT newVegas:RightHandThumb2
									{
										OFFSET -5.480453 -3.164139 3.164143
										CHANNELS 3 Xrotation Yrotation Zrotation
										JOINT newVegas:RightHandThumb3
										{
											OFFSET -5.159721 -2.978973 2.978967
											CHANNELS 3 Xrotation Yrotation Zrotation
											End Site
											{
												OFFSET -2.494507 5.926697 1.738678
											}
										}
									}
								}
								JOINT newVegas:RightHandIndex1
								{
									OFFSET -18.578728 -0.527832 5.208049
									CHANNELS 3 Xrotation Yrotation Zrotation
									JOINT newVegas:RightHandIndex2
									{
										OFFSET -3.192009 0.000000 0.000000
										CHANNELS 3 Xrotation Yrotation Zrotation
										JOINT newVegas:RightHandIndex3
										{
											OFFSET -3.835129 0.000000 0.000000
											CHANNELS 3 Xrotation Yrotation Zrotation
											End Site
											{
												OFFSET 0.034599 3.816971 0.371180
											}
										}
									}
								}
								JOINT newVegas:RightHandMiddle1
								{
									OFFSET -18.476105 0.000000 0.000000
									CHANNELS 3 Xrotation Yrotation Zrotation
									JOINT newVegas:RightHandMiddle2
									{
										OFFSET -3.324875 0.000000 0.000000
										CHANNELS 3 Xrotation Yrotation Zrotation
										JOINT newVegas:RightHandMiddle3
										{
											OFFSET -4.596550 0.000000 0.000000
											CHANNELS 3 Xrotation Yrotation Zrotation
											End Site
											{
												OFFSET -0.057701 4.578827 0.399218
											}
										}
									}
								}
								JOINT newVegas:RightHandRing1
								{
									OFFSET -17.732719 0.121887 -4.201567
									CHANNELS 3 Xrotation Yrotation Zrotation
									JOINT newVegas:RightHandRing2
									{
										OFFSET -2.733170 0.000000 0.000000
										CHANNELS 3 Xrotation Yrotation Zrotation
										JOINT newVegas:RightHandRing3
										{
											OFFSET -3.178268 0.000000 0.000000
											CHANNELS 3 Xrotation Yrotation Zrotation
											End Site
											{
												OFFSET -0.119102 3.170624 0.185394
											}
										}
									}
								}
								JOINT newVegas:RightHandPinky1
								{
									OFFSET -15.989624 -0.606689 -7.535461
									CHANNELS 3 Xrotation Yrotation Zrotation
									JOINT newVegas:RightHandPinky2
									{
										OFFSET -2.538986 0.000000 0.000000
										CHANNELS 3 Xrotation Yrotation Zrotation
										JOINT newVegas:RightHandPinky3
										{
											OFFSET -2.593102 0.000000 0.000000
											CHANNELS 3 Xrotation Yrotation Zrotation
											End Site
											{
												OFFSET 0.150902 2.584198 0.152708
											}
										}
									}
								}
							}
							JOINT newVegas:Right_CapeC
							{
								OFFSET -15.715958 -8.608795 -6.935905
								CHANNELS 3 Xrotation Yrotation Zrotation
								JOINT newVegas:Right_CapeC1
								{
									OFFSET 0.000000 -8.688499 0.000000
									CHANNELS 3 Xrotation Yrotation Zrotation
									End Site
									{
										OFFSET 0.000000 8.688499 0.000000
									}
								}
							}
							JOINT newVegas:Right_Sleeve
							{
								OFFSET -0.267448 -0.649994 0.577675
								CHANNELS 3 Xrotation Yrotation Zrotation
								End Site
								{
									OFFSET 0.000000 15.991302 0.000000
								}
							}
						}
						JOINT newVegas:Right_CapeA
						{
							OFFSET -5.115540 -8.608795 -10.395824
							CHANNELS 3 Xrotation Yrotation Zrotation
							JOINT newVegas:Right_CapeA1
							{
								OFFSET 0.000000 -8.688499 0.000000
								CHANNELS 3 Xrotation Yrotation Zrotation
								End Site
								{
									OFFSET 0.000000 8.688499 0.000000
								}
							}
						}
						JOINT newVegas:Right_CapeB
						{
							OFFSET -26.118187 -8.608795 -7.079266
							CHANNELS 3 Xrotation Yrotation Zrotation
							JOINT newVegas:Right_CapeB1
							{
								OFFSET 0.000000 -8.688499 0.000000
								CHANNELS 3 Xrotation Yrotation Zrotation
								End Site
								{
									OFFSET 0.000000 8.688499 0.000000
								}
							}
						}
					}
				}
				JOINT newVegas:Left_Collar
				{
					OFFSET 18.625099 8.655502 8.828100
					CHANNELS 3 Xrotation Yrotation Zrotation
					JOINT newVegas:Left_Collar1
					{
						OFFSET 14.783401 10.540405 -1.259500
						CHANNELS 3 Xrotation Yrotation Zrotation
						End Site
						{
							OFFSET 0.000000 18.199875 0.000000
						}
					}
				}
				JOINT newVegas:Collar_Back
				{
					OFFSET 0.000000 15.630707 -20.132601
					CHANNELS 3 Xrotation Yrotation Zrotation
					End Site
					{
						OFFSET 0.000000 22.523010 0.000000
					}
				}
				JOINT newVegas:Left_Peck
				{
					OFFSET 17.239599 -5.132599 25.482599
					CHANNELS 3 Xrotation Yrotation Zrotation
					End Site
					{
						OFFSET 0.000000 22.523010 0.000000
					}
				}
				JOINT newVegas:Right_Peck
				{
					OFFSET -17.239599 -5.132202 25.482599
					CHANNELS 3 Xrotation Yrotation Zrotation
					End Site
					{
						OFFSET 0.000000 22.523010 0.000000
					}
				}
				JOINT newVegas:Right_Collar
				{
					OFFSET -18.625099 8.655792 8.828100
					CHANNELS 3 Xrotation Yrotation Zrotation
					JOINT newVegas:Right_Collar1
					{
						OFFSET -14.783401 10.539993 -1.259500
						CHANNELS 3 Xrotation Yrotation Zrotation
						End Site
						{
							OFFSET 0.000000 18.199631 0.000000
						}
					}
				}
			}
		}
		JOINT newVegas:Belly
		{
			OFFSET 0.000000 -6.540398 9.014299
			CHANNELS 3 Xrotation Yrotation Zrotation
			End Site
			{
				OFFSET 0.000000 11.566666 0.000000
			}
		}
	}
	JOINT newVegas:ElvisFacialAnim_Joint
	{
		OFFSET 1.000000 -95.330101 -8.825800
		CHANNELS 3 Xrotation Yrotation Zrotation
		End Site
		{
			OFFSET 0.000000 35.315800 0.000000
		}
	}
}
MOTION
Frames: 4
Frame Time: 0.033333
0.758069 89.009499 -6.963463 12.585815 -2.448958 -3.022012 0.000000 -0.000000 0.000000 -44.746762 -3.141658 5.428478 47.385233 -0.682971 -1.676323 -15.073676 1.881025 -0.986483 0.000000 0.000000 0.000000 -0.000001 0.000000 -0.000000 -28.128867 -11.251220 -4.832615 41.724656 0.527045 1.578020 -23.337962 -9.775391 5.260290 0.000000 0.000000 -0.000000 -0.000000 0.000002 -0.000000 0.629008 0.401250 -0.880053 1.258752 0.932609 -1.209087 1.258761 0.932608 -1.209091 4.768416 -0.559584 0.695513 4.768404 -0.559584 0.695516 -0.000000 0.000000 0.000000 4.768320 -0.559590 0.695512 4.768509 -0.559585 0.695513 -0.000001 -0.000000 0.000000 -0.000000 0.000000 0.000000 0.231137 0.485960 8.685934 -30.436880 -73.452742 -76.791127 0.363557 -80.112675 0.361984 -4.633248 17.600955 -6.464596 -6.927095 9.146805 6.848346 4.247425 12.926142 -2.280767 0.000003 0.000001 -0.000003 -0.611834 6.025864 -49.602121 0.475747 1.030091 -59.155633 -0.000002 -0.000002 -0.000001 -0.309033 0.850281 -50.844574 -3.375280 -4.252652 -72.702555 -0.000003 -0.000000 -0.000000 -3.869794 3.438302 -63.904466 -2.635719 -4.640561 -64.635139 0.000002 -0.000002 0.000002 -6.562638 3.769609 -70.543300 -4.565732 -7.782372 -75.427603 0.000003 0.000002 0.000001 0.000000 0.000000 0.000000 0.000000 0.000000 0.000000 -0.000001 0.000000 0.000000 0.000001 -0.000001 -0.000001 0.000001 -0.000002 -0.000001 0.000001 -0.000001 -0.000001 0.000001 -0.000001 -0.000001 0.648870 7.390861 -0.076262 -115.435333 78.184486 102.975695 -0.317835 100.314196 0.396482 5.646641 -2.564124 18.496960 23.725138 -3.752366 -10.638391 2.321126 -6.714511 -2.170924 -0.000001 -0.000002 -0.000001 -4.375004 -7.010461 20.816882 0.170713 -0.873177 22.188797 -0.000000 0.000001 0.000000 -11.776302 8.431608 46.454046 -1.350561 2.777823 51.578303 -0.000000 -0.000000 0.000002 -14.058332 7.721499 58.119507 -2.704852 5.049879 55.036404 0.000001 -0.000001 -0.000003 -4.646561 1.715203 61.629070 -5.348269 9.961743 73.139066 0.000002 0.000005 0.000004 -0.000000 -0.000002 -0.000001 -0.000000 -0.000004 0.000001 -0.000000 -0.000002 -0.000001 0.000000 0.000002 0.000001 0.000000 0.000003 0.000001 0.000000 0.000002 0.000001 0.000000 0.000003 0.000001 0.000002 -0.000000 -0.000000 0.000002 -0.000000 -0.000000 0.000002 -0.000000 -0.000000 0.000002 -0.000000 -0.000000 0.000002 -0.000000 -0.000000 0.000002 -0.000000 -0.000000 0.000002 -0.000000 -0.000000 0.000000 0.000000 -0.000000 0.000000 -0.000000 0.000000 
0.470921 89.110031 -7.054581 12.937123 -3.076464 -2.727755 -0.000001 0.000000 0.000000 -44.716241 -2.181434 6.046980 46.701436 -0.674490 -1.656621 -14.808139 1.233978 -1.165862 -0.000000 0.000000 -0.000000 -0.000000 0.000000 -0.000000 -28.433992 -11.518477 -4.018624 40.319833 0.398189 1.514876 -23.044495 -10.338412 3.333882 0.000000 0.000001 -0.000000 -0.000000 0.000001 -0.000000 0.616820 0.358300 -0.826414 1.234267 0.844896 -1.132958 1.234271 0.844896 -1.132959 4.948711 -0.750128 0.583101 4.948707 -0.750126 0.583102 0.000001 0.000000 -0.000000 4.948708 -0.750129 0.583106 4.948800 -0.750119 0.583101 0.000003 -0.000000 -0.000000 0.000001 0.000000 -0.000000 0.351410 -0.392846 7.169674 -15.561152 -71.628365 -63.696363 0.442095 -82.315104 0.443011 -4.740508 16.890945 -5.588662 -6.901195 9.422168 7.050096 4.305726 12.995770 -2.206940 0.000002 0.000003 -0.000004 -0.480880 6.109381 -49.792841 0.481220 1.036227 -59.513446 -0.000001 0.000000 -0.000001 -0.273818 0.873670 -51.168656 -3.395679 -4.255104 -72.967642 0.000001 0.000000 -0.000001 -3.962083 3.403205 -64.001038 -2.679262 -4.664680 -65.198527 -0.000003 0.000001 0.000002 -6.755834 3.728755 -70.665670 -4.614151 -7.812200 -75.779760 0.000002 0.000002 0.000001 -0.000001 0.000001 -0.000001 -0.000001 0.000001 -0.000001 -0.000002 0.000001 -0.000001 0.000001 -0.000002 0.000000 0.000002 -0.000001 0.000000 0.000001 -0.000002 0.000000 -0.000000 -0.000001 0.000000 0.630067 7.388669 0.463420 -106.028763 80.181298 95.717458 -0.290509 101.445132 0.365949 11.164379 -3.218288 17.578078 23.725142 -3.752374 -10.638378 2.321126 -6.714506 -2.170919 0.000001 -0.000000 -0.000000 -4.375002 -7.010464 20.816871 0.170704 -0.873174 22.188819 -0.000001 -0.000001 -0.000001 -11.776301 8.431601 46.454043 -1.350556 2.777822 51.578276 0.000001 0.000002 0.000002 -13.869515 7.825382 57.469662 -2.704860 5.049870 55.036435 0.000001 -0.000003 -0.000001 -4.646560 1.715207 61.629070 -5.348274 9.961737 73.139086 -0.000000 0.000001 0.000001 0.000000 0.000001 -0.000000 0.000000 0.000000 -0.000000 0.000000 0.000000 0.000001 0.000000 -0.000001 0.000000 0.000000 0.000000 -0.000000 0.000000 -0.000001 0.000000 0.000000 -0.000000 -0.000000 0.000000 -0.000000 -0.000000 0.000000 -0.000000 -0.000000 0.000000 -0.000000 -0.000000 0.000000 -0.000000 -0.000000 0.000000 -0.000000 -0.000000 0.000000 -0.000000 -0.000000 0.000000 -0.000000 -0.000000 0.000001 0.000000 0.000000 -0.000001 0.000000 0.000000 
0.154454 89.270073 -6.999937 12.853189 -3.624233 -2.327495 -0.000000 0.000000 0.000000 -44.003818 -0.915796 6.663421 45.826164 -0.659440 -1.630183 -14.625407 0.299639 -1.356353 -0.000000 -0.000000 -0.000000 -0.000001 -0.000000 -0.000000 -27.671880 -12.022982 -3.420554 38.902172 0.281608 1.452212 -22.860862 -10.640800 1.436565 -0.000000 -0.000001 -0.000000 -0.000000 0.000001 -0.000001 0.582751 0.341742 -0.774271 1.165979 0.803176 -1.052965 1.165978 0.803177 -1.052965 4.967128 -0.870112 0.517598 4.967139 -0.870110 0.517597 -0.000001 0.000000 0.000000 4.967138 -0.870111 0.517597 4.967207 -0.870102 0.517595 0.000001 0.000000 0.000000 -0.000001 0.000000 0.000000 0.458890 -1.306303 5.236362 -2.448746 -67.907838 -53.252386 0.504349 -83.814959 0.510178 -4.922871 16.621067 -4.079061 -6.882180 9.687651 7.255943 4.362325 13.062229 -2.133173 0.000002 0.000002 -0.000002 -0.350312 6.194973 -49.975371 0.486573 1.042277 -59.863876 -0.000006 0.000000 0.000001 -0.237335 0.898626 -51.471192 -3.414476 -4.256937 -73.211022 0.000001 -0.000001 0.000000 -4.050417 3.368953 -64.049580 -2.719372 -4.686758 -65.713954 -0.000001 -0.000002 0.000002 -6.942523 3.688951 -70.733282 -4.656344 -7.840754 -76.075111 0.000002 0.000000 -0.000001 0.000002 -0.000000 0.000002 0.000002 -0.000000 0.000002 0.000001 -0.000000 0.000002 -0.000001 -0.000001 -0.000002 -0.000001 -0.000001 -0.000001 -0.000001 -0.000001 -0.000002 -0.000001 -0.000002 -0.000002 0.585478 7.880188 1.759112 -68.848764 82.133339 61.704769 -0.255553 103.103966 0.323396 15.064566 -3.182554 16.300132 23.725145 -3.752360 -10.638388 2.321115 -6.714511 -2.170922 -0.000000 -0.000001 -0.000002 -4.375002 -7.010452 20.816876 0.170709 -0.873193 22.188817 -0.000001 -0.000001 -0.000001 -11.776302 8.431612 46.454049 -1.350550 2.777830 51.578286 0.000001 -0.000001 -0.000001 -13.679064 7.927359 56.817994 -2.704860 5.049871 55.036404 -0.000000 -0.000001 -0.000000 -4.646563 1.715212 61.629056 -5.348274 9.961735 73.139093 0.000003 0.000003 0.000003 0.000000 0.000000 0.000000 -0.000001 0.000000 0.000000 0.000000 0.000000 0.000000 -0.000000 0.000000 0.000000 -0.000001 0.000000 0.000000 -0.000000 0.000000 0.000000 -0.000001 -0.000000 0.000000 -0.000001 -0.000000 -0.000000 -0.000001 -0.000000 -0.000000 -0.000001 -0.000000 -0.000000 -0.000001 -0.000000 -0.000000 -0.000001 -0.000000 -0.000000 -0.000001 -0.000000 -0.000000 -0.000001 -0.000000 -0.000000 0.000000 0.000000 0.000000 -0.000000 0.000000 0.000000 
-0.212929 89.440681 -6.818604 12.402047 -4.123546 -1.818119 -0.000001 -0.000000 -0.000000 -42.770723 0.693033 7.293377 44.890807 -0.644036 -1.601699 -14.568150 -0.941981 -1.572226 -0.000000 0.000000 -0.000000 0.000002 -0.000000 -0.000000 -26.220803 -12.303169 -3.326977 37.519728 0.239939 1.399714 -22.988588 -10.296870 0.776947 0.000000 -0.000001 0.000000 0.000001 0.000000 -0.000000 0.534197 0.358986 -0.716488 1.068686 0.824678 -0.965417 1.068691 0.824678 -0.965419 4.862060 -0.759641 0.490768 4.862047 -0.759639 0.490770 0.000000 -0.000000 -0.000000 4.862062 -0.759637 0.490769 4.862068 -0.759640 0.490770 -0.000003 0.000000 0.000000 0.000000 -0.000000 -0.000000 0.530162 -2.104358 3.266678 6.473188 -62.737282 -47.733064 0.502226 -84.413386 0.514716 -4.548647 17.557305 -3.157312 -6.870067 9.942353 7.465871 4.417097 13.125118 -2.059458 -0.000000 -0.000003 -0.000005 -0.220010 6.282114 -50.147082 0.491792 1.048259 -60.204142 -0.000002 -0.000000 0.000000 -0.199549 0.925067 -51.751052 -3.431503 -4.258112 -73.431562 -0.000001 -0.000000 0.000000 -4.134856 3.335415 -64.051786 -2.756084 -4.706982 -66.183174 -0.000002 0.000003 0.000001 -7.122882 3.649901 -70.748370 -4.692527 -7.868177 -76.315958 0.000001 -0.000002 -0.000000 -0.000001 -0.000001 0.000001 -0.000001 -0.000001 0.000001 -0.000001 -0.000001 0.000001 -0.000001 -0.000002 -0.000000 -0.000001 -0.000002 0.000000 -0.000001 -0.000002 -0.000000 -0.000001 -0.000002 -0.000000 0.473612 9.016382 4.028702 -19.636147 77.476099 16.225205 -0.220028 105.507052 0.276282 14.928663 -3.522874 15.100884 23.725130 -3.752373 -10.638391 2.321126 -6.714506 -2.170924 -0.000002 -0.000000 -0.000000 -4.375006 -7.010464 20.816854 0.170714 -0.873182 22.188833 -0.000001 0.000000 0.000002 -11.776303 8.431620 46.454026 -1.350558 2.777820 51.578273 0.000000 0.000002 0.000000 -13.487672 8.027024 56.166691 -2.704871 5.049879 55.036428 -0.000001 0.000001 0.000001 -4.646559 1.715214 61.629063 -5.348258 9.961740 73.139073 -0.000000 -0.000000 0.000001 -0.000000 -0.000000 -0.000000 -0.000000 -0.000000 -0.000001 -0.000000 -0.000000 -0.000000 0.000000 0.000000 0.000000 0.000000 0.000000 0.000000 0.000000 0.000000 0.000000 0.000000 -0.000000 0.000000 0.000002 -0.000000 0.000000 0.000002 -0.000000 0.000000 0.000002 -0.000000 0.000000 0.000002 -0.000000 0.000000 0.000002 -0.000000 0.000000 0.000002 -0.000000 0.000000 0.000002 -0.000000 0.000000 0.000000 0.000000 0.000000 -0.000001 -0.000000 -0.000000 
